<svg xmlns="http://www.w3.org/2000/svg" viewBox="0 0 398.37 79.37"><defs><style>.cls-1{fill:#fe3b1f;}.cls-2{fill:none;}</style></defs><title>Asset 1</title><g id="Layer_2" data-name="Layer 2"><g id="Layer_1-2" data-name="Layer 1"><g id="Layer_2-2" data-name="Layer 2"><g id="Layer_1-2-2" data-name="Layer 1-2"><path class="cls-1" d="M258.87,34.46h16.89V44.9h-16.9A14.47,14.47,0,0,0,272,54.18h3.77v10.4H271.7a24.89,24.89,0,0,1,.2-49.77h3.85V25.2H272A14.48,14.48,0,0,0,258.87,34.46Z"></path><line class="cls-2" x1="275.75" y1="25.19" x2="275.75" y2="25.21"></line><path class="cls-1" d="M178.16,64.56H166.05V14.81H178a24.9,24.9,0,0,1,.17,49.77Zm-1.72-10.37h.86a14.5,14.5,0,0,0,0-29h-.86Z"></path><path class="cls-1" d="M221.48,64.58H209.37V14.81h14.29a13.7,13.7,0,0,1,13.67,13.68A13.47,13.47,0,0,1,236,34.44l-.32.64.58.42a16.11,16.11,0,0,1-9,29.08Zm-1.72-10.4h6.92a5.71,5.71,0,1,0,.48-11.41,3.84,3.84,0,0,0-.48,0h-6.92Zm0-22.4h3.89a3.29,3.29,0,0,0,0-6.57h-3.9Z"></path><polygon class="cls-1" points="371.64 64.59 371.64 42.81 356.42 14.8 369.37 14.8 377.39 29.57 385.43 14.8 398.38 14.8 383.14 42.81 383.14 64.59 371.64 64.59"></polygon><path class="cls-1" d="M118.43,64.58l-9.62-17.17h-3.52V64.58h-11V14.78h15.33a16.31,16.31,0,0,1,10,29.2l-.59.46,11.28,20.14ZM105.29,36.43h4.35a5.34,5.34,0,0,0,.47-10.67,3.69,3.69,0,0,0-.47,0h-4.35Z"></path><path class="cls-1" d="M307,64.58l-9.62-17.17h-3.52V64.58h-11V14.78h15.32a16.31,16.31,0,0,1,10,29.2l-.58.46,11.28,20.14ZM293.89,36.43h4.35a5.34,5.34,0,1,0,.47-10.67,3.69,3.69,0,0,0-.47,0h-4.35Z"></path><path class="cls-1" d="M348.1,64.58l-9.62-17.17H335V64.58H324V14.78h15.32a16.31,16.31,0,0,1,10,29.2l-.58.46L360,64.58ZM335,36.43h4.35a5.34,5.34,0,1,0,.47-10.67,3.69,3.69,0,0,0-.47,0H335Z"></path><path class="cls-1" d="M142,34.46h16.89V44.9H142a14.49,14.49,0,0,0,13.12,9.26h3.77v10.4h-4a24.89,24.89,0,0,1,.2-49.77h3.85V25.2h-3.77A14.5,14.5,0,0,0,142,34.46Z"></path><path class="cls-1" d="M53.68,29.56a1,1,0,0,0-1.2-.58.94.94,0,0,0-.58,1.18h0a1,1,0,0,0,1.2.59A.94.94,0,0,0,53.68,29.56Zm0,0a1,1,0,0,0-1.2-.58.94.94,0,0,0-.58,1.18h0a1,1,0,0,0,1.2.59A.94.94,0,0,0,53.68,29.56Zm0,0a1,1,0,0,0-1.2-.58.94.94,0,0,0-.58,1.18h0a1,1,0,0,0,1.2.59A.94.94,0,0,0,53.68,29.56Zm0,0a1,1,0,0,0-1.2-.58.94.94,0,0,0-.58,1.18h0a1,1,0,0,0,1.2.59A.94.94,0,0,0,53.68,29.56ZM39.68,0A39.67,39.67,0,0,0,7.53,62.93l6.39-5.3,2.59-2.13,3.69-3.07,3.5-2.9,3.22-2.67,3.24-2.67,1-.81,1.21-1L34,41.06l2.59-2.15.77,1.58c-2.65,2.58-12,11.82-22.09,21.93,0,0-2.24,2.24-2.24,4.74a4.19,4.19,0,0,0,1.44,3.1c.41.33.81.65,1.22,1,.21.17.42.32.64.48a.66.66,0,0,0,.17.12c.25.2.5.38.76.55h0c.34.23.66.45,1,.66.66.44,1.34.84,2,1.23A39.68,39.68,0,1,0,39.68,0ZM37.13,38a1.89,1.89,0,0,1,1.68-.65,1.74,1.74,0,0,1-.13-.59,1.12,1.12,0,0,1,.37-.86l5.6-4.9a1.33,1.33,0,0,1,1.75,2l-5.63,4.89a1.19,1.19,0,0,1-1.43,0,0,0,0,0,1,0,0c.15.81-1.21,2.14-1.21,2.14ZM20.93,61.17c.66-2.51,7-8.64,7.45-9a3.39,3.39,0,0,1-1,1.48c-.89,1-4,5.21-2.31,4.08,1.53-1,3.38-2.26,3.63-2.45C26.76,57.74,20.26,63.77,20.93,61.17ZM29.7,54.6l-.76-3c1.81-1.4,3.26-1.93,3.42-.69S29.7,54.6,29.7,54.6Zm25-20.72a3.54,3.54,0,0,1-.3,2.65C52.68,40.07,33.08,51.2,33.08,51.2h0v-.35a2.05,2.05,0,0,1,.51-1.42C34.76,48.11,39.71,43,41,41.68s-7.17,5.25-7.76,5.61C36.64,44,44.66,36.11,47.41,33.53h.05a1.61,1.61,0,0,1,1.59-.36,1.63,1.63,0,0,1,1.05,2,1.59,1.59,0,0,1-1.25,1.08,2.3,2.3,0,0,0,2.71-1.54,1.88,1.88,0,0,0,.1-.88,2.32,2.32,0,0,0-1.34-2l-.32,0a2.07,2.07,0,0,0-.66-.1c-.05-.14-.12-.28-.17-.42a4.28,4.28,0,0,1,6.21-5.09L53,28.24a1.71,1.71,0,0,1,1.29,1.09c0,.1.05.21.06.31.23.66,1.84.91,3,1a4.2,4.2,0,0,1-2.7,3.24ZM67,22.29a3,3,0,0,0-3,3,.19.19,0,0,1-.18.21h0a.23.23,0,0,1-.21-.21,3,3,0,0,0-3-3,.19.19,0,0,1-.2-.18v0a.2.2,0,0,1,.19-.19h0a3,3,0,0,0,3-3,.2.2,0,0,1,.2-.2h0a.18.18,0,0,1,.19.19h0a3,3,0,0,0,3,3,.2.2,0,0,1,.24.15.19.19,0,0,1-.15.24A.14.14,0,0,1,67,22.29ZM52.48,29a.94.94,0,0,0-.58,1.18h0a1,1,0,0,0,1.2.59.94.94,0,0,0,.58-1.2A.93.93,0,0,0,52.49,29Zm1.2.58a1,1,0,0,0-1.2-.58.94.94,0,0,0-.58,1.18h0a1,1,0,0,0,1.2.59.94.94,0,0,0,.58-1.2Zm0,0a1,1,0,0,0-1.2-.58.94.94,0,0,0-.58,1.18h0a1,1,0,0,0,1.2.59.94.94,0,0,0,.58-1.2Zm0,0a1,1,0,0,0-1.2-.58.94.94,0,0,0-.58,1.18h0a1,1,0,0,0,1.2.59.94.94,0,0,0,.58-1.2Zm0,0a1,1,0,0,0-1.2-.58.94.94,0,0,0-.58,1.18h0a1,1,0,0,0,1.2.59.94.94,0,0,0,.58-1.2Z"></path></g></g></g></g></svg>